<?xml version="1.0" standalone="no"?>
<!DOCTYPE svg PUBLIC "-//W3C//DTD SVG 20010904//EN"
 "http://www.w3.org/TR/2001/REC-SVG-20010904/DTD/svg10.dtd">
<svg version="1.0" xmlns="http://www.w3.org/2000/svg"
 width="200.000000pt" height="200.000000pt" viewBox="0 0 200.000000 200.000000"
 preserveAspectRatio="xMidYMid meet">
<metadata>
Created by potrace 1.14, written by Peter Selinger 2001-2017
</metadata>
<g transform="translate(0.000000,200.000000) scale(0.100000,-0.100000)"
fill="#000000" stroke="none">
<path d="M1015 1627 l-1 -124 77 39 c42 21 82 38 88 38 51 0 -75 144 -144 164
-20 6 -20 2 -20 -117z"/>
<path d="M910 1714 c-33 -23 -99 -100 -100 -116 0 -7 155 -88 169 -88 4 0 7
52 7 115 -1 108 -2 115 -21 115 -11 -1 -36 -12 -55 -26z"/>
<path d="M561 1575 l-35 -16 84 -84 c46 -46 86 -83 88 -80 13 13 59 171 52
179 -17 17 -152 18 -189 1z"/>
<path d="M1270 1581 c-14 -4 -25 -11 -25 -16 1 -14 48 -159 55 -167 3 -4 44
30 90 77 l84 84 -37 16 c-37 15 -122 19 -167 6z"/>
<path d="M782 1543 c-10 -19 -52 -150 -52 -162 0 -4 30 -3 67 2 55 8 78 17
120 50 29 22 53 41 53 43 0 5 -130 70 -157 78 -16 5 -25 2 -31 -11z"/>
<path d="M1112 1520 c-45 -21 -82 -41 -82 -43 0 -3 24 -22 53 -44 43 -33 65
-42 120 -50 l68 -10 -7 31 c-12 54 -49 149 -59 153 -6 2 -48 -15 -93 -37z"/>
<path d="M488 1503 c-14 -32 -17 -135 -5 -176 6 -22 12 -27 25 -21 9 4 49 18
87 32 39 13 72 26 74 28 6 5 -151 164 -162 164 -4 0 -13 -12 -19 -27z"/>
<path d="M1405 1450 c-43 -44 -77 -81 -74 -84 2 -2 43 -17 91 -33 100 -35 96
-37 105 62 5 59 -14 135 -34 135 -5 0 -44 -36 -88 -80z"/>
<path d="M953 1423 c-13 -9 -23 -19 -23 -23 0 -12 45 -5 54 8 13 22 -7 31 -31
15z"/>
<path d="M1019 1438 c-6 -25 -6 -38 -1 -39 24 -4 62 -5 62 -3 0 4 -60 46 -61
42z"/>
<path d="M874 1355 c-16 -7 -40 -24 -54 -39 l-24 -27 89 -89 c49 -50 92 -90
96 -90 4 0 5 225 0 252 -2 11 -75 7 -107 -7z"/>
<path d="M1019 1362 c-5 -27 -4 -252 0 -252 4 0 47 40 96 90 l89 89 -24 27
c-14 14 -34 31 -45 37 -23 12 -114 20 -116 9z"/>
<path d="M767 1353 c-28 -4 -28 -5 -11 -24 16 -18 18 -18 36 -3 18 17 24 35
11 33 -5 -1 -21 -4 -36 -6z"/>
<path d="M1201 1334 c21 -22 24 -23 41 -7 22 20 22 20 -25 26 l-39 5 23 -24z"/>
<path d="M589 1306 c-93 -33 -91 -30 -72 -79 22 -55 63 -127 72 -127 19 0 81
102 86 142 4 24 8 53 11 66 6 29 -11 28 -97 -2z"/>
<path d="M1314 1313 c2 -10 7 -40 11 -68 4 -35 17 -63 43 -97 20 -27 41 -47
46 -45 16 5 89 158 79 168 -11 11 -148 59 -168 59 -11 0 -15 -6 -11 -17z"/>
<path d="M716 1309 c-2 -8 -6 -27 -9 -43 l-5 -28 26 26 c25 24 25 27 10 43
-14 14 -18 14 -22 2z"/>
<path d="M1260 1305 c-10 -13 -9 -19 5 -35 22 -24 34 -18 27 15 -6 32 -16 39
-32 20z"/>
<path d="M736 1230 c-32 -35 -38 -48 -40 -95 l-3 -55 36 -1 c108 -2 223 0 226
3 3 2 -37 46 -88 96 l-93 93 -38 -41z"/>
<path d="M1125 1170 c-49 -49 -86 -90 -82 -91 4 0 57 -1 117 -1 61 0 119 1
129 1 19 1 20 10 12 102 -2 13 -64 79 -75 79 -6 0 -52 -40 -101 -90z"/>
<path d="M403 1211 c-52 -42 -96 -117 -76 -129 9 -5 189 -8 225 -3 11 2 -76
170 -88 171 -6 0 -34 -18 -61 -39z"/>
<path d="M1487 1170 c-21 -44 -39 -83 -40 -86 -2 -6 145 -9 222 -5 18 1 7 46
-20 80 -26 33 -98 91 -113 91 -6 0 -28 -36 -49 -80z"/>
<path d="M648 1123 c-29 -34 -30 -43 -6 -43 19 0 24 6 26 30 3 35 0 36 -20 13z"/>
<path d="M1333 1113 c2 -24 7 -33 25 -36 28 -5 28 1 -3 38 l-24 30 2 -32z"/>
<path d="M320 1035 c0 -26 26 -68 62 -101 34 -31 88 -68 91 -62 1 2 21 42 44
91 l43 87 -120 0 c-102 0 -120 -2 -120 -15z"/>
<path d="M620 1043 c1 -10 36 -53 43 -53 3 0 4 12 3 28 -2 19 -10 28 -25 30
-11 2 -21 0 -21 -5z"/>
<path d="M696 993 c4 -51 8 -62 42 -95 l37 -38 95 95 95 95 -136 0 -136 0 3
-57z"/>
<path d="M1052 1040 c4 -13 170 -180 177 -179 3 0 21 18 39 39 27 32 33 47 35
92 l2 53 -128 3 c-84 2 -128 -1 -125 -8z"/>
<path d="M1332 1020 c-1 -36 4 -37 29 -7 24 29 24 37 -4 37 -20 0 -24 -5 -25
-30z"/>
<path d="M1486 960 c29 -58 50 -88 57 -84 63 35 137 120 137 156 0 16 -10 18
-120 18 l-119 0 45 -90z"/>
<path d="M539 944 c-34 -70 -39 -88 -28 -95 12 -8 163 -59 174 -59 3 0 2 17
-1 38 -3 20 -6 49 -8 65 -3 26 -74 136 -88 137 -4 0 -26 -39 -49 -86z"/>
<path d="M1389 1007 c-8 -12 -26 -36 -38 -53 -15 -20 -26 -54 -31 -95 -4 -35
-6 -65 -5 -67 3 -4 158 47 174 57 13 8 8 24 -28 95 -23 47 -45 86 -49 86 -4 0
-14 -11 -23 -23z"/>
<path d="M883 927 l-92 -92 41 -35 c31 -26 53 -36 90 -40 29 -3 52 -1 57 5 9
11 9 240 0 249 -3 3 -46 -36 -96 -87z"/>
<path d="M1014 890 l0 -130 56 0 c49 1 59 4 93 35 20 20 37 38 37 42 0 7 -173
183 -180 183 -3 0 -6 -58 -6 -130z"/>
<path d="M707 874 c-3 -3 -2 -16 3 -29 5 -13 6 -26 3 -29 -4 -3 -2 -6 4 -6 6
0 16 7 23 15 9 11 8 18 -7 35 -11 11 -22 17 -26 14z"/>
<path d="M1267 859 c-17 -19 -17 -23 -3 -37 20 -21 28 -12 24 28 l-3 31 -18
-22z"/>
<path d="M486 812 c-2 -4 -8 -36 -12 -70 -5 -48 -3 -73 11 -108 l17 -46 84 83
c46 46 84 87 84 90 0 4 -16 10 -35 13 -20 4 -56 16 -81 27 -50 21 -60 23 -68
11z"/>
<path d="M1408 791 c-43 -14 -76 -30 -75 -34 1 -4 38 -43 81 -87 76 -76 80
-78 94 -59 30 42 23 202 -8 205 -8 1 -50 -11 -92 -25z"/>
<path d="M751 796 c-14 -17 -7 -21 39 -24 l35 -3 -25 20 c-30 25 -34 25 -49 7z"/>
<path d="M1195 790 l-20 -22 35 4 c22 3 35 10 35 19 0 22 -30 22 -50 -1z"/>
<path d="M736 723 c9 -38 40 -127 51 -147 8 -14 17 -12 83 20 108 52 107 50
49 96 -41 32 -63 42 -112 49 -34 5 -65 9 -70 9 -4 0 -4 -12 -1 -27z"/>
<path d="M1185 740 c-35 -5 -66 -19 -103 -46 -61 -45 -61 -45 53 -100 l69 -34
13 23 c12 20 53 146 53 161 0 7 -16 6 -85 -4z"/>
<path d="M609 654 c-68 -69 -81 -86 -69 -94 27 -18 78 -28 117 -24 47 4 103
14 103 18 0 2 -11 34 -25 72 -14 38 -25 77 -25 86 0 35 -19 24 -101 -58z"/>
<path d="M1277 663 c-14 -43 -28 -85 -32 -94 -10 -26 62 -39 166 -30 9 0 27 9
38 19 l22 17 -84 83 -85 83 -25 -78z"/>
<path d="M945 706 c33 -26 45 -26 41 2 -2 12 -13 18 -37 20 l-34 3 30 -25z"/>
<path d="M1013 705 c0 -14 0 -25 1 -25 1 0 17 11 36 25 l34 25 -36 0 c-31 0
-35 -3 -35 -25z"/>
<path d="M893 576 c-46 -22 -83 -44 -83 -47 0 -3 13 -24 29 -46 36 -50 89 -92
121 -95 l25 -3 1 113 c0 62 -2 114 -5 116 -3 2 -43 -15 -88 -38z"/>
<path d="M1015 503 l0 -118 24 3 c33 3 86 45 122 95 16 22 29 43 29 46 0 5
-133 74 -169 89 -4 1 -7 -51 -6 -115z"/>
</g>
</svg>
